<?xml version="1.0" standalone="no"?>
<!DOCTYPE svg PUBLIC "-//W3C//DTD SVG 20010904//EN"
 "http://www.w3.org/TR/2001/REC-SVG-20010904/DTD/svg10.dtd">
<svg version="1.0" xmlns="http://www.w3.org/2000/svg"
 width="197.000000pt" height="197.000000pt" viewBox="0 0 197.000000 197.000000"
 preserveAspectRatio="xMidYMid meet">
<metadata>
Created by potrace 1.11, written by Peter Selinger 2001-2013
</metadata>
<g transform="translate(0.000000,197.000000) scale(0.100000,-0.100000)"
fill="#000000" stroke="none">
<path d="M1411 1872 c-48 -96 -49 -99 -33 -125 9 -15 20 -27 24 -27 5 0 8 -6
8 -12 0 -7 -97 -208 -215 -446 -118 -238 -215 -437 -215 -442 0 -28 20 2 70
103 104 211 363 712 382 739 14 20 24 25 46 22 39 -6 55 10 106 109 43 84 45
103 10 96 -33 -6 -61 6 -95 41 l-39 40 -49 -98z"/>
<path d="M855 1619 c-22 -4 -54 -10 -71 -13 -55 -10 -161 -54 -231 -96 -172
-103 -314 -294 -369 -495 -22 -83 -26 -272 -7 -360 42 -198 152 -371 314 -493
78 -59 217 -121 318 -142 112 -24 276 -20 382 8 284 76 503 294 581 578 28
105 31 308 4 404 -42 152 -111 274 -216 378 -62 63 -160 133 -173 125 -9 -5
-77 -139 -77 -151 0 -5 17 -21 39 -35 99 -66 194 -195 231 -316 101 -323 -53
-652 -363 -778 -34 -14 -71 -27 -82 -29 -11 -2 -41 -8 -67 -12 -150 -28 -353
28 -488 136 -114 92 -205 246 -226 383 -6 44 -6 176 1 210 45 234 203 415 425
489 90 31 104 33 200 33 57 0 112 -8 168 -23 46 -12 84 -21 86 -19 5 6 76 148
76 153 0 9 -101 46 -165 59 -75 16 -225 19 -290 6z"/>
<path d="M870 1246 c-79 -23 -141 -58 -194 -111 -178 -180 -180 -456 -3 -636
202 -205 552 -154 691 100 91 169 63 392 -68 525 -78 79 -80 78 -126 -13 l-40
-80 37 -43 c49 -58 66 -102 66 -173 2 -228 -264 -341 -431 -184 -68 64 -95
194 -59 280 38 92 141 162 237 161 30 0 61 -2 68 -4 15 -3 81 110 85 144 2 18
-7 23 -48 34 -62 17 -155 16 -215 0z"/>
<path d="M916 911 c-111 -74 -39 -235 92 -206 33 7 78 46 87 76 9 28 -2 84
-19 98 -11 9 -20 0 -45 -44 l-31 -55 -31 15 c-17 9 -29 19 -27 23 2 4 16 31
31 60 l27 52 -27 0 c-16 0 -41 -9 -57 -19z"/>
</g>
</svg>
